<?xml version="1.0" encoding="UTF-8" standalone="no"?>
<!DOCTYPE svg PUBLIC "-//W3C//DTD SVG 1.1//EN"
 "http://www.w3.org/Graphics/SVG/1.1/DTD/svg11.dtd">
<!-- Generated by graphviz version 2.40.1 (20161225.0304)
 -->
<!-- Title: G Pages: 1 -->
<svg width="1743pt" height="260pt"
 viewBox="0.00 0.00 1743.47 260.00" xmlns="http://www.w3.org/2000/svg" xmlns:xlink="http://www.w3.org/1999/xlink">
<g id="graph0" class="graph" transform="scale(1 1) rotate(0) translate(4 256)">
<title>G</title>
<polygon fill="#444444" stroke="transparent" points="-4,4 -4,-256 1739.4736,-256 1739.4736,4 -4,4"/>
<!-- arraylru -->
<g id="node1" class="node">
<title>arraylru</title>
<ellipse fill="none" stroke="#ffffff" cx="44.8097" cy="-162" rx="44.6203" ry="18"/>
<text text-anchor="middle" x="44.8097" y="-157.8" font-family="Times,serif" font-size="14.00" fill="#ffffff">array&#45;lru</text>
</g>
<!-- atomicbatcher -->
<g id="node2" class="node">
<title>atomicbatcher</title>
<ellipse fill="none" stroke="#ffffff" cx="176.8097" cy="-162" rx="68.8965" ry="18"/>
<text text-anchor="middle" x="176.8097" y="-157.8" font-family="Times,serif" font-size="14.00" fill="#ffffff">atomic&#45;batcher</text>
</g>
<!-- bitfieldrle -->
<g id="node3" class="node">
<title>bitfieldrle</title>
<ellipse fill="none" stroke="#ffffff" cx="935.8097" cy="-162" rx="52.1598" ry="18"/>
<text text-anchor="middle" x="935.8097" y="-157.8" font-family="Times,serif" font-size="14.00" fill="#ffffff">bitfield&#45;rle</text>
</g>
<!-- varint -->
<g id="node18" class="node">
<title>varint</title>
<ellipse fill="none" stroke="#ffffff" cx="939.8097" cy="-90" rx="33.6247" ry="18"/>
<text text-anchor="middle" x="939.8097" y="-85.8" font-family="Times,serif" font-size="14.00" fill="#ffffff">varint</text>
</g>
<!-- bitfieldrle&#45;&gt;varint -->
<g id="edge15" class="edge">
<title>bitfieldrle&#45;&gt;varint</title>
<path fill="none" stroke="#ffffff" d="M936.8191,-143.8314C937.2469,-136.131 937.7556,-126.9743 938.231,-118.4166"/>
<polygon fill="#ffffff" stroke="#ffffff" points="941.7266,-118.592 938.7868,-108.4133 934.7374,-118.2037 941.7266,-118.592"/>
</g>
<!-- codecs -->
<g id="node4" class="node">
<title>codecs</title>
<ellipse fill="none" stroke="#ffffff" cx="430.8097" cy="-162" rx="37.1194" ry="18"/>
<text text-anchor="middle" x="430.8097" y="-157.8" font-family="Times,serif" font-size="14.00" fill="#ffffff">codecs</text>
</g>
<!-- fastbitfield -->
<g id="node5" class="node">
<title>fastbitfield</title>
<ellipse fill="none" stroke="#ffffff" cx="319.8097" cy="-162" rx="56.1705" ry="18"/>
<text text-anchor="middle" x="319.8097" y="-157.8" font-family="Times,serif" font-size="14.00" fill="#ffffff">fast&#45;bitfield</text>
</g>
<!-- counttrailingzeros -->
<g id="node15" class="node">
<title>counttrailingzeros</title>
<ellipse fill="none" stroke="#ffffff" cx="319.8097" cy="-90" rx="87.375" ry="18"/>
<text text-anchor="middle" x="319.8097" y="-85.8" font-family="Times,serif" font-size="14.00" fill="#ffffff">count&#45;trailing&#45;zeros</text>
</g>
<!-- fastbitfield&#45;&gt;counttrailingzeros -->
<g id="edge16" class="edge">
<title>fastbitfield&#45;&gt;counttrailingzeros</title>
<path fill="none" stroke="#ffffff" d="M319.8097,-143.8314C319.8097,-136.131 319.8097,-126.9743 319.8097,-118.4166"/>
<polygon fill="#ffffff" stroke="#ffffff" points="323.3098,-118.4132 319.8097,-108.4133 316.3098,-118.4133 323.3098,-118.4132"/>
</g>
<!-- flattree -->
<g id="node6" class="node">
<title>flattree</title>
<ellipse fill="none" stroke="#ffffff" cx="551.8097" cy="-90" rx="41.6843" ry="18"/>
<text text-anchor="middle" x="551.8097" y="-85.8" font-family="Times,serif" font-size="14.00" fill="#ffffff">flat&#45;tree</text>
</g>
<!-- hypercorecrypto -->
<g id="node7" class="node">
<title>hypercorecrypto</title>
<ellipse fill="none" stroke="#ffffff" cx="787.8097" cy="-162" rx="77.5511" ry="18"/>
<text text-anchor="middle" x="787.8097" y="-157.8" font-family="Times,serif" font-size="14.00" fill="#ffffff">hypercore&#45;crypto</text>
</g>
<!-- hypercoreprotocol -->
<g id="node8" class="node">
<title>hypercoreprotocol</title>
<ellipse fill="none" stroke="#ffffff" cx="1090.8097" cy="-162" rx="85.0754" ry="18"/>
<text text-anchor="middle" x="1090.8097" y="-157.8" font-family="Times,serif" font-size="14.00" fill="#ffffff">hypercore&#45;protocol</text>
</g>
<!-- libsodium -->
<g id="node13" class="node">
<title>libsodium</title>
<ellipse fill="none" stroke="#ffffff" cx="1203.8097" cy="-90" rx="49.8388" ry="18"/>
<text text-anchor="middle" x="1203.8097" y="-85.8" font-family="Times,serif" font-size="14.00" fill="#ffffff">libsodium</text>
</g>
<!-- hypercoreprotocol&#45;&gt;libsodium -->
<g id="edge25" class="edge">
<title>hypercoreprotocol&#45;&gt;libsodium</title>
<path fill="none" stroke="#ffffff" d="M1117.8761,-144.7542C1133.5219,-134.7852 1153.3456,-122.1541 1170.0095,-111.5364"/>
<polygon fill="#ffffff" stroke="#ffffff" points="1172.3428,-114.1999 1178.8956,-105.8745 1168.5813,-108.2964 1172.3428,-114.1999"/>
</g>
<!-- sortedindexof -->
<g id="node16" class="node">
<title>sortedindexof</title>
<ellipse fill="none" stroke="#ffffff" cx="1065.8097" cy="-90" rx="70.6258" ry="18"/>
<text text-anchor="middle" x="1065.8097" y="-85.8" font-family="Times,serif" font-size="14.00" fill="#ffffff">sorted&#45;index&#45;of</text>
</g>
<!-- hypercoreprotocol&#45;&gt;sortedindexof -->
<g id="edge26" class="edge">
<title>hypercoreprotocol&#45;&gt;sortedindexof</title>
<path fill="none" stroke="#ffffff" d="M1084.5012,-143.8314C1081.7981,-136.0463 1078.5781,-126.7729 1075.5787,-118.1347"/>
<polygon fill="#ffffff" stroke="#ffffff" points="1078.7898,-116.7119 1072.2032,-108.4133 1072.1771,-119.0081 1078.7898,-116.7119"/>
</g>
<!-- hypercoreprotocol&#45;&gt;varint -->
<g id="edge24" class="edge">
<title>hypercoreprotocol&#45;&gt;varint</title>
<path fill="none" stroke="#ffffff" d="M1056.1673,-145.4817C1031.7235,-133.8264 999.1031,-118.2723 974.6216,-106.599"/>
<polygon fill="#ffffff" stroke="#ffffff" points="975.8736,-103.3185 965.3407,-102.1737 972.8607,-109.637 975.8736,-103.3185"/>
</g>
<!-- memorypager -->
<g id="node9" class="node">
<title>memorypager</title>
<ellipse fill="none" stroke="#ffffff" cx="1406.8097" cy="-90" rx="67.7586" ry="18"/>
<text text-anchor="middle" x="1406.8097" y="-85.8" font-family="Times,serif" font-size="14.00" fill="#ffffff">memory&#45;pager</text>
</g>
<!-- buffer -->
<g id="node19" class="node">
<title>buffer</title>
<ellipse fill="none" stroke="#ffffff" cx="1406.8097" cy="-18" rx="34.7496" ry="18"/>
<text text-anchor="middle" x="1406.8097" y="-13.8" font-family="Times,serif" font-size="14.00" fill="#ffffff">buffer</text>
</g>
<!-- memorypager&#45;&gt;buffer -->
<g id="edge22" class="edge">
<title>memorypager&#45;&gt;buffer</title>
<path fill="none" stroke="#ffffff" d="M1406.8097,-71.8314C1406.8097,-64.131 1406.8097,-54.9743 1406.8097,-46.4166"/>
<polygon fill="#ffffff" stroke="#ffffff" points="1410.3098,-46.4132 1406.8097,-36.4133 1403.3098,-46.4133 1410.3098,-46.4132"/>
</g>
<!-- merkletreestream -->
<g id="node10" class="node">
<title>merkletreestream</title>
<ellipse fill="none" stroke="#ffffff" cx="607.8097" cy="-162" rx="84.4803" ry="18"/>
<text text-anchor="middle" x="607.8097" y="-157.8" font-family="Times,serif" font-size="14.00" fill="#ffffff">merkle&#45;tree&#45;stream</text>
</g>
<!-- merkletreestream&#45;&gt;flattree -->
<g id="edge23" class="edge">
<title>merkletreestream&#45;&gt;flattree</title>
<path fill="none" stroke="#ffffff" d="M593.967,-144.2022C587.1532,-135.4416 578.8214,-124.7293 571.3695,-115.1482"/>
<polygon fill="#ffffff" stroke="#ffffff" points="574.0098,-112.842 565.1076,-107.0972 568.4843,-117.1396 574.0098,-112.842"/>
</g>
<!-- prettyhash -->
<g id="node11" class="node">
<title>prettyhash</title>
<ellipse fill="none" stroke="#ffffff" cx="1285.8097" cy="-162" rx="54.4527" ry="18"/>
<text text-anchor="middle" x="1285.8097" y="-157.8" font-family="Times,serif" font-size="14.00" fill="#ffffff">pretty&#45;hash</text>
</g>
<!-- randomaccessfile -->
<g id="node12" class="node">
<title>randomaccessfile</title>
<ellipse fill="none" stroke="#ffffff" cx="1630.8097" cy="-162" rx="84.4841" ry="18"/>
<text text-anchor="middle" x="1630.8097" y="-157.8" font-family="Times,serif" font-size="14.00" fill="#ffffff">random&#45;access&#45;file</text>
</g>
<!-- randomaccessstorage -->
<g id="node17" class="node">
<title>randomaccessstorage</title>
<ellipse fill="none" stroke="#ffffff" cx="1630.8097" cy="-90" rx="99.5153" ry="18"/>
<text text-anchor="middle" x="1630.8097" y="-85.8" font-family="Times,serif" font-size="14.00" fill="#ffffff">random&#45;access&#45;storage</text>
</g>
<!-- randomaccessfile&#45;&gt;randomaccessstorage -->
<g id="edge17" class="edge">
<title>randomaccessfile&#45;&gt;randomaccessstorage</title>
<path fill="none" stroke="#ffffff" d="M1630.8097,-143.8314C1630.8097,-136.131 1630.8097,-126.9743 1630.8097,-118.4166"/>
<polygon fill="#ffffff" stroke="#ffffff" points="1634.3098,-118.4132 1630.8097,-108.4133 1627.3098,-118.4133 1634.3098,-118.4132"/>
</g>
<!-- sparsebitfield -->
<g id="node14" class="node">
<title>sparsebitfield</title>
<ellipse fill="none" stroke="#ffffff" cx="1461.8097" cy="-162" rx="66.0454" ry="18"/>
<text text-anchor="middle" x="1461.8097" y="-157.8" font-family="Times,serif" font-size="14.00" fill="#ffffff">sparse&#45;bitfield</text>
</g>
<!-- sparsebitfield&#45;&gt;memorypager -->
<g id="edge21" class="edge">
<title>sparsebitfield&#45;&gt;memorypager</title>
<path fill="none" stroke="#ffffff" d="M1448.2142,-144.2022C1441.7358,-135.7214 1433.8602,-125.4115 1426.724,-116.0696"/>
<polygon fill="#ffffff" stroke="#ffffff" points="1429.2913,-113.6646 1420.4395,-107.8425 1423.7285,-117.9139 1429.2913,-113.6646"/>
</g>
<!-- path -->
<g id="node20" class="node">
<title>path</title>
<ellipse fill="none" stroke="#ffffff" cx="1707.8097" cy="-18" rx="27.8286" ry="18"/>
<text text-anchor="middle" x="1707.8097" y="-13.8" font-family="Times,serif" font-size="14.00" fill="#ffffff">path</text>
</g>
<!-- randomaccessstorage&#45;&gt;path -->
<g id="edge19" class="edge">
<title>randomaccessstorage&#45;&gt;path</title>
<path fill="none" stroke="#ffffff" d="M1649.8435,-72.2022C1660.1644,-62.5515 1673.0182,-50.5323 1683.9974,-40.2661"/>
<polygon fill="#ffffff" stroke="#ffffff" points="1686.6838,-42.5459 1691.5976,-33.1594 1681.9028,-37.4329 1686.6838,-42.5459"/>
</g>
<!-- mkdirp -->
<g id="node21" class="node">
<title>mkdirp</title>
<ellipse fill="none" stroke="#ffffff" cx="1542.8097" cy="-18" rx="38.8652" ry="18"/>
<text text-anchor="middle" x="1542.8097" y="-13.8" font-family="Times,serif" font-size="14.00" fill="#ffffff">mkdirp</text>
</g>
<!-- randomaccessstorage&#45;&gt;mkdirp -->
<g id="edge20" class="edge">
<title>randomaccessstorage&#45;&gt;mkdirp</title>
<path fill="none" stroke="#ffffff" d="M1609.0569,-72.2022C1597.283,-62.569 1582.6249,-50.5761 1570.0924,-40.3222"/>
<polygon fill="#ffffff" stroke="#ffffff" points="1572.1713,-37.5009 1562.2153,-33.8773 1567.7386,-42.9186 1572.1713,-37.5009"/>
</g>
<!-- libuv -->
<g id="node23" class="node">
<title>libuv</title>
<ellipse fill="none" stroke="#ffffff" cx="1630.8097" cy="-18" rx="30.7789" ry="18"/>
<text text-anchor="middle" x="1630.8097" y="-13.8" font-family="Times,serif" font-size="14.00" fill="#ffffff">libuv</text>
</g>
<!-- randomaccessstorage&#45;&gt;libuv -->
<g id="edge18" class="edge">
<title>randomaccessstorage&#45;&gt;libuv</title>
<path fill="none" stroke="#ffffff" d="M1630.8097,-71.8314C1630.8097,-64.131 1630.8097,-54.9743 1630.8097,-46.4166"/>
<polygon fill="#ffffff" stroke="#ffffff" points="1634.3098,-46.4132 1630.8097,-36.4133 1627.3098,-46.4133 1634.3098,-46.4132"/>
</g>
<!-- Hypercore -->
<g id="node22" class="node">
<title>Hypercore</title>
<ellipse fill="none" stroke="#ffffff" cx="861.8097" cy="-234" rx="51.5669" ry="18"/>
<text text-anchor="middle" x="861.8097" y="-229.8" font-family="Times,serif" font-size="14.00" fill="#ffffff">Hypercore</text>
</g>
<!-- Hypercore&#45;&gt;arraylru -->
<g id="edge1" class="edge">
<title>Hypercore&#45;&gt;arraylru</title>
<path fill="none" stroke="#ffffff" d="M810.2689,-232.0395C661.8976,-226.1286 235.6523,-207.1988 98.8097,-180 94.9933,-179.2414 91.0734,-178.2904 87.1721,-177.224"/>
<polygon fill="#ffffff" stroke="#ffffff" points="88.165,-173.8679 77.5825,-174.3797 86.1744,-180.5789 88.165,-173.8679"/>
</g>
<!-- Hypercore&#45;&gt;atomicbatcher -->
<g id="edge2" class="edge">
<title>Hypercore&#45;&gt;atomicbatcher</title>
<path fill="none" stroke="#ffffff" d="M810.3544,-231.8224C705.3569,-226.8519 459.0764,-212.4959 254.8097,-180 248.9187,-179.0628 242.8105,-177.9339 236.7234,-176.7039"/>
<polygon fill="#ffffff" stroke="#ffffff" points="237.0488,-173.1955 226.5414,-174.5544 235.6028,-180.0446 237.0488,-173.1955"/>
</g>
<!-- Hypercore&#45;&gt;bitfieldrle -->
<g id="edge3" class="edge">
<title>Hypercore&#45;&gt;bitfieldrle</title>
<path fill="none" stroke="#ffffff" d="M879.3467,-216.937C888.7702,-207.7682 900.5483,-196.3084 910.9056,-186.2311"/>
<polygon fill="#ffffff" stroke="#ffffff" points="913.4157,-188.6722 918.1422,-179.19 908.5342,-183.6551 913.4157,-188.6722"/>
</g>
<!-- Hypercore&#45;&gt;codecs -->
<g id="edge4" class="edge">
<title>Hypercore&#45;&gt;codecs</title>
<path fill="none" stroke="#ffffff" d="M811.1061,-230.0122C737.6763,-223.5146 597.8231,-208.4182 481.8097,-180 477.7571,-179.0073 473.5747,-177.8168 469.4297,-176.5272"/>
<polygon fill="#ffffff" stroke="#ffffff" points="470.4978,-173.1941 459.9046,-173.3845 468.3044,-179.8416 470.4978,-173.1941"/>
</g>
<!-- Hypercore&#45;&gt;fastbitfield -->
<g id="edge5" class="edge">
<title>Hypercore&#45;&gt;fastbitfield</title>
<path fill="none" stroke="#ffffff" d="M810.5814,-230.8567C722.7911,-224.8797 538.2202,-209.7331 384.8097,-180 380.1684,-179.1004 375.3743,-178.0369 370.5911,-176.8835"/>
<polygon fill="#ffffff" stroke="#ffffff" points="371.3937,-173.4763 360.8404,-174.4134 369.6747,-180.262 371.3937,-173.4763"/>
</g>
<!-- Hypercore&#45;&gt;flattree -->
<g id="edge6" class="edge">
<title>Hypercore&#45;&gt;flattree</title>
<path fill="none" stroke="#ffffff" d="M811.1602,-229.7301C719.5152,-221.4887 533.8457,-202.2274 514.8097,-180 498.5597,-161.0256 513.4285,-133.942 528.8874,-114.4487"/>
<polygon fill="#ffffff" stroke="#ffffff" points="531.72,-116.5177 535.4598,-106.6049 526.3545,-112.022 531.72,-116.5177"/>
</g>
<!-- Hypercore&#45;&gt;hypercorecrypto -->
<g id="edge7" class="edge">
<title>Hypercore&#45;&gt;hypercorecrypto</title>
<path fill="none" stroke="#ffffff" d="M844.2728,-216.937C834.9869,-207.9021 823.4145,-196.6425 813.1684,-186.6733"/>
<polygon fill="#ffffff" stroke="#ffffff" points="815.6017,-184.1574 805.9936,-179.6924 810.7202,-189.1746 815.6017,-184.1574"/>
</g>
<!-- Hypercore&#45;&gt;hypercoreprotocol -->
<g id="edge8" class="edge">
<title>Hypercore&#45;&gt;hypercoreprotocol</title>
<path fill="none" stroke="#ffffff" d="M900.3975,-221.8676C936.7436,-210.44 991.6635,-193.1726 1033.1963,-180.1143"/>
<polygon fill="#ffffff" stroke="#ffffff" points="1034.4208,-183.3983 1042.9106,-177.06 1032.3212,-176.7205 1034.4208,-183.3983"/>
</g>
<!-- Hypercore&#45;&gt;memorypager -->
<g id="edge9" class="edge">
<title>Hypercore&#45;&gt;memorypager</title>
<path fill="none" stroke="#ffffff" d="M912.7994,-230.8242C1030.1852,-223.1619 1312.2852,-202.6143 1348.8097,-180 1372.004,-165.6392 1387.6662,-138.166 1396.8096,-117.3338"/>
<polygon fill="#ffffff" stroke="#ffffff" points="1400.0764,-118.5928 1400.6673,-108.0144 1393.6086,-115.9155 1400.0764,-118.5928"/>
</g>
<!-- Hypercore&#45;&gt;merkletreestream -->
<g id="edge10" class="edge">
<title>Hypercore&#45;&gt;merkletreestream</title>
<path fill="none" stroke="#ffffff" d="M821.5627,-222.5914C780.425,-210.9303 716.0251,-192.6752 668.6574,-179.2481"/>
<polygon fill="#ffffff" stroke="#ffffff" points="669.3981,-175.8203 658.8226,-176.4603 667.489,-182.5549 669.3981,-175.8203"/>
</g>
<!-- Hypercore&#45;&gt;prettyhash -->
<g id="edge11" class="edge">
<title>Hypercore&#45;&gt;prettyhash</title>
<path fill="none" stroke="#ffffff" d="M911.0562,-228.2424C980.0343,-219.79 1109.1656,-202.5502 1217.8097,-180 1223.1905,-178.8832 1228.7808,-177.6028 1234.3406,-176.2509"/>
<polygon fill="#ffffff" stroke="#ffffff" points="1235.4166,-179.5894 1244.2635,-173.76 1233.7122,-172.8001 1235.4166,-179.5894"/>
</g>
<!-- Hypercore&#45;&gt;randomaccessfile -->
<g id="edge12" class="edge">
<title>Hypercore&#45;&gt;randomaccessfile</title>
<path fill="none" stroke="#ffffff" d="M913.245,-231.8074C1026.3947,-226.5634 1305.2662,-211.3352 1536.8097,-180 1544.4509,-178.9659 1552.4107,-177.7152 1560.3224,-176.3605"/>
<polygon fill="#ffffff" stroke="#ffffff" points="1561.0532,-179.7856 1570.2907,-174.5973 1559.8339,-172.8926 1561.0532,-179.7856"/>
</g>
<!-- Hypercore&#45;&gt;libsodium -->
<g id="edge13" class="edge">
<title>Hypercore&#45;&gt;libsodium</title>
<path fill="none" stroke="#ffffff" d="M913.4732,-232.256C994.6585,-228.4182 1146.7912,-216.4395 1184.8097,-180 1201.2277,-164.2639 1205.2592,-138.1853 1205.6045,-118.1401"/>
<polygon fill="#ffffff" stroke="#ffffff" points="1209.1028,-117.9696 1205.4839,-108.012 1202.1033,-118.053 1209.1028,-117.9696"/>
</g>
<!-- Hypercore&#45;&gt;sparsebitfield -->
<g id="edge14" class="edge">
<title>Hypercore&#45;&gt;sparsebitfield</title>
<path fill="none" stroke="#ffffff" d="M913.0038,-230.694C1006.5481,-224.2076 1211.1807,-207.9555 1381.8097,-180 1388.5115,-178.902 1395.4934,-177.5882 1402.4184,-176.1771"/>
<polygon fill="#ffffff" stroke="#ffffff" points="1403.422,-179.5426 1412.4844,-174.054 1401.9773,-172.6933 1403.422,-179.5426"/>
</g>
</g>
</svg>
